<svg xmlns="http://www.w3.org/2000/svg" xmlns:xlink="http://www.w3.org/1999/xlink" width="141" height="44" viewBox="0 0 141 44">
    <defs>
        <path id="prefix__a" d="M0 27.696L139.783 27.696 139.783 0.249 0 0.249z"/>
    </defs>
    <g fill="none" fill-rule="evenodd">
        <path fill="#413000" d="M44.516 38.603L42.239 43.879 39.918 38.603 38.509 38.603 38.509 45.646 39.657 45.646 39.657 40.891 41.749 45.646 42.678 45.646 44.731 40.904 44.731 45.646 45.879 45.646 45.879 38.603zM50.447 38.603L47.458 45.646 48.766 45.646 51.022 40.138 51.982 42.471 50.786 42.471 50.42 43.55 52.427 43.55 53.29 45.646 54.659 45.646 51.653 38.603z" transform="translate(0 -2)"/>
        <g transform="translate(0 -2) translate(1 18.056)">
            <path fill="#413000" d="M55.96 25.481c0 .704-.384 1.032-1.209 1.032h-.19v1.078h.19c2.024 0 2.449-1.148 2.449-2.11v-4.934h-1.24v4.934z"/>
            <mask id="prefix__b" fill="#fff">
                <use xlink:href="#prefix__a"/>
            </mask>
            <path fill="#413000" d="M59.729 27.591L60.97 27.591 60.97 20.547 59.729 20.547zM66.074 26.513h-1.372v-4.888h1.372c1.52 0 2.258.74 2.258 2.263 0 1.767-.739 2.625-2.258 2.625m0-5.966H63.46v7.044h2.614c2.322 0 3.499-1.247 3.499-3.703 0-2.217-1.177-3.34-3.5-3.34M77.282 20.547L74.292 27.591 75.599 27.591 77.856 22.082 78.817 24.415 77.62 24.415 77.254 25.495 79.261 25.495 80.124 27.591 81.493 27.591 78.488 20.547zM84.312 20.547L83.072 20.547 83.072 27.591 87.799 27.591 87.799 26.513 84.312 26.513zM93.068 27.591L94.308 27.591 94.308 24.562 97.639 24.562 97.639 23.483 94.308 23.483 94.308 21.625 97.804 21.625 97.804 20.547 93.068 20.547zM104.233 24.829c0 1.18-.547 1.73-1.722 1.73-1.175 0-1.722-.55-1.722-1.73v-4.282h-1.242v4.282c0 1.864.997 2.809 2.964 2.809s2.963-.945 2.963-2.81v-4.28h-1.241v4.28zM107.22 21.625L109.316 21.625 109.316 27.591 110.559 27.591 110.559 21.625 112.655 21.625 112.655 20.547 107.22 20.547zM113.889 21.625L115.985 21.625 115.985 27.591 117.226 27.591 117.226 21.625 119.324 21.625 119.324 20.547 113.889 20.547zM122.751 20.547L119.762 27.591 121.069 27.591 123.325 22.082 124.286 24.415 123.09 24.415 122.723 25.495 124.73 25.495 125.594 27.591 126.962 27.591 123.957 20.547zM128.68 27.591L129.921 27.591 129.921 20.547 128.68 20.547zM136.142 25.823L133.82 20.547 132.413 20.547 132.413 27.591 133.561 27.591 133.561 22.835 135.651 27.591 136.582 27.591 138.635 22.848 138.635 27.591 139.783 27.591 139.783 20.547 138.419 20.547zM51.158 18.145L52.398 18.145 52.398 16.732 51.158 16.732zM53.326 18.145L54.569 18.145 54.569 16.732 53.326 16.732zM79.974 7.758L81.214 7.758 81.214 6.34 79.974 6.34z" mask="url(#prefix__b)"/>
            <path fill="#413000" d="M43.798 14.39c-.827 0-1.32-.64-1.32-1.713 0-1.163.498-1.83 1.366-1.83.808 0 1.269.619 1.269 1.698 0 1.654-.75 1.845-1.315 1.845m25.553-.59c0 .185-.007.378-.02.578h-5.585c.63-1.913 2.302-3.544 3.682-3.544 1.186 0 1.923 1.136 1.923 2.966m11.223-3.81c.475 0 .853.15 1.126.443.26.275.388.615.388 1.04 0 .4-.133.794-.396 1.171-.268.39-.63.685-1.105.899-.5-.223-.87-.521-1.132-.912-.255-.364-.378-.748-.378-1.171 0-.878.601-1.47 1.497-1.47m14.017 3.275V7.338h-1.233v5.546c0 .532-.053.894-.16 1.085-.139.276-.42.41-.86.41l-9.626-.014c-.282 0-.55-.042-.802-.125.422-.258.76-.598 1.012-1.012.31-.5.466-1.049.466-1.633 0-.74-.238-1.373-.709-1.885-.516-.558-1.224-.84-2.105-.84-.87 0-1.574.281-2.094.838-.476.507-.718 1.142-.718 1.887 0 .584.157 1.133.465 1.632.253.415.592.755 1.01 1.013-.25.083-.519.125-.8.125h-7.835c.004-.128.004-.25.004-.37 0-2.868-1.05-4.321-3.12-4.321-1.43 0-2.875 1.03-3.787 2.64l.17-4.964h-1.284v7.028l-8.165-.012c.096-.303.142-.667.142-1.103V9.687h-1.229v3.197c0 .526-.053.894-.159 1.097-.139.266-.421.397-.863.397l-3.753-.013c-1.127 0-1.897-.686-2.01-1.791-.183-1.835-1.164-2.887-2.69-2.887H40.3c-1.851 0-2.79 1.199-2.79 3.563v4.32h1.23V13.3c0-1.56.583-2.492 1.56-2.492h1.27c-.34.498-.512 1.105-.512 1.81 0 1.787 1.075 2.94 2.74 2.94 1.005 0 1.756-.394 2.239-1.175.477.805 1.356 1.213 2.62 1.213H77.72c.704 0 1.176-.024 1.444-.074.446-.086.923-.272 1.424-.556.508.289.968.47 1.408.556.269.05.737.074 1.433.074h9.186c.902 0 1.977-.404 1.977-2.331M96.656 15.595L97.886 15.595 97.886 7.338 96.656 7.338zM119.65 14.179c0-2.632-1.648-4.332-4.199-4.332-1.373 0-2.436.458-3.158 1.361l-.106.133.12.12c.395.39.62.621.73.746l.172.191.132-.219c.454-.75 1.15-1.113 2.125-1.113 1.804 0 2.798 1.083 2.798 3.05 0 .078-.004.162-.01.25h-11.33c-.183-3.115-1.602-4.692-4.222-4.692h-.189v1.184l.503-.001c.96.058 1.648.443 2.098 1.178.353.579.543 1.362.566 2.33h-4.79v1.231h18.76V14.18zM115.047 18.134L116.297 18.134 116.297 16.719 115.047 16.719zM137.08 15.51c-.462 0-.804-.169-1.046-.515-.212-.314-.32-.728-.32-1.232 0-.552.105-.98.322-1.31.247-.376.604-.56 1.094-.56.45 0 .779.168 1.004.509.192.304.288.713.288 1.213 0 1.275-.439 1.895-1.342 1.895m-14.276.086h12.075c.495.704 1.235 1.062 2.201 1.062.834 0 1.508-.298 2.004-.884.464-.542.699-1.24.699-2.073 0-.855-.228-1.556-.68-2.086-.485-.568-1.163-.855-2.01-.855-.848 0-1.53.282-2.027.842-.491.562-.741 1.272-.741 2.112 0 .224.02.443.06.651-4.226 0-11.184-.002-11.371-.01-.279-.042-.461-.137-.562-.294-.139-.212-.21-.584-.21-1.103V7.336h-1.256v6.134c0 .704.188 1.23.577 1.607.341.344.758.52 1.241.52" mask="url(#prefix__b)"/>
            <path fill="#B4975A" d="M13.978.249C5.748.249 0 5.795 0 13.15v14.546h4.775s-.004-8.003-.004-14.557c0-6.84 5.19-11.72 10.396-12.778.211-.045.46-.112.213-.112h-1.402zm.916.636c-.617.207-1.227.462-2.106 1.01-3.668 2.28-5.313 6.47-5.478 10.527-.01.23-.015.46-.015.69l-.002.176v14.408h4.771V13.288c0-.909.412-1.72 1.059-2.26l1.882 2.26 1.88-2.26c.648.54 1.06 1.351 1.06 2.26v14.408h4.77V13.288c0-4.26-3.452-7.712-7.71-7.712-1.007 0-1.97.193-2.85.545V6.12c.977-1.148 2.453-1.717 4.066-1.751h.005c.504-.012 1.02.03 1.54.121 4.223.693 7.44 4.232 7.456 8.5.008.163.012.328.012.495v14.21H30l.007-14.33c0-6.207-3.73-11.184-10.087-12.665-.231-.053-.6-.127-.929-.172-.47-.062-.952-.114-1.45-.114-1.032 0-1.783.183-2.647.471z" mask="url(#prefix__b)"/>
        </g>
    </g>
</svg>
