<?xml version="1.0" encoding="utf-8"?>
<!-- Generator: Adobe Illustrator 22.1.0, SVG Export Plug-In . SVG Version: 6.00 Build 0)  -->
<svg version="1.1" id="Layer_1" xmlns="http://www.w3.org/2000/svg" xmlns:xlink="http://www.w3.org/1999/xlink" x="0px" y="0px"
	 viewBox="0 0 204.6 48.8" style="enable-background:new 0 0 204.6 48.8;" xml:space="preserve">
<style type="text/css">
	.st0{fill:#FF0029;}
	.st1{fill:#5EC4B6;}
	.st2{fill:#FFFFFF;}
</style>
<g>
	<g>
		<path class="st0" d="M59.9,34.4c1.3,1.3,2.9,2,4.8,2s3.5-0.7,4.8-2c1.3-1.4,2-3,2-4.9s-0.7-3.5-2-4.8c-1.3-1.4-2.9-2-4.8-2
			s-3.5,0.7-4.8,2s-2,2.9-2,4.8S58.6,33.1,59.9,34.4 M75.1,19.7c2.9,2.7,4.3,5.9,4.3,9.8s-1.4,7.2-4.3,9.9s-6.3,4-10.3,4
			c-4.1,0-7.5-1.4-10.3-4c-2.8-2.7-4.2-6-4.2-9.9s1.4-7.2,4.2-9.8c2.9-2.7,6.3-4.1,10.3-4.1C68.8,15.6,72.2,17,75.1,19.7"/>
		<path class="st0" d="M193.8,35.9c1.7-1.7,4.3-1.7,6,0s1.7,4.3,0,5.9c-1.7,1.7-4.3,1.7-6,0C192.2,40.2,192.2,37.6,193.8,35.9"/>
		<path class="st1" d="M151.5,5.4c2.4,0,4.4,1.9,4.4,4.4c0,2.4-2,4.4-4.4,4.4s-4.4-1.9-4.4-4.4S149,5.4,151.5,5.4"/>
		<path class="st0" d="M151.3,18.2c-1.4,0-2.7-0.3-3.8-1v25.4h7.7V17.2C154,17.8,152.7,18.2,151.3,18.2"/>
		<path class="st0" d="M34.6,15.9c-4.1,0-6.9,1.9-8.4,3.5c-3.1-3.1-6.6-3.5-8.4-3.5c-2.5,0-4.7,0.9-6.4,2c-4,2.6-5.2,6.9-5.2,9.4
			v15.3H14V26.8c0-2.6,2.2-4.1,4.1-4.1c2.5,0,4.1,2.1,4.1,4v15.9H30V26.7c0-1.9,1.6-4,4.1-4c2.3,0,4.1,1.9,4.1,4v15.9H46l0.1-15.1
			C46.1,21.5,41.1,15.9,34.6,15.9"/>
		<path class="st0" d="M83.6,42.6V16.4h7.8v3.3c1.1-2.3,4-3.8,7.6-3.8c6.4,0,10.1,4,10.1,10.8v15.9h-7.8v-15c0-3.1-1.7-4.9-4.8-4.9
			c-3,0-5.1,2.1-5.1,5.2v14.7H83.6z"/>
		<path class="st0" d="M122.8,34.2c-1.3-1.3-1.9-2.9-1.9-4.7c0-1.8,0.6-3.4,1.9-4.6c1.3-1.3,2.9-1.9,4.7-1.9c1.9,0,3.5,0.6,4.8,1.9
			c1.4,1.2,2,2.8,2,4.6c0,1.8-0.7,3.4-2,4.7c-1.3,1.2-2.9,1.9-4.8,1.9C125.6,36.1,124.1,35.4,122.8,34.2 M133.8,5.4v12.5
			c-2.1-1.3-4.5-2-7.1-2c-0.1,0-0.2,0-0.3,0c-7.4,0.2-13.3,6.2-13.3,13.6c0,0,0,0,0,0.1c0,7.3,5.8,13.2,13.1,13.5c0.2,0,0.4,0,0.5,0
			c2.6,0,5-0.7,7.1-2v1.5h7.8V5.4H133.8z"/>
		<path class="st0" d="M179.1,34.2c-1.3,1.2-2.9,1.9-4.8,1.9c-1.9,0-3.4-0.6-4.7-1.9c-1.3-1.3-1.9-2.9-1.9-4.7s0.6-3.4,1.9-4.6
			c1.3-1.3,2.9-1.9,4.7-1.9c1.9,0,3.5,0.6,4.8,1.9c1.4,1.2,2,2.8,2,4.6S180.4,32.9,179.1,34.2 M180.5,16.4v1.5c-2.1-1.3-4.5-2-7.1-2
			c-0.1,0-0.2,0-0.3,0c-7.4,0.2-13.3,6.2-13.3,13.6c0,0,0,0,0,0.1c0,7.3,6,13.3,13.3,13.5c0.1,0,0.2,0,0.3,0c2.6,0,5-0.7,7.1-2v1.5
			h7.8V16.4H180.5z"/>
	</g>
</g>
</svg>
