<svg width="204" height="48" viewBox="0 0 204 48" fill="none" xmlns="http://www.w3.org/2000/svg">
<path d="M30.082 31.5682C28.8622 32.979 27.3192 34.0665 25.5998 34.7719C23.8804 35.4772 21.9994 35.7565 20.1477 35.6095C18.2961 35.4625 16.4885 34.8747 14.9014 33.8901C13.3142 32.9202 11.9769 31.5829 11.007 29.9958C10.3604 28.9377 9.89016 27.8061 9.58155 26.6011C9.55216 26.4688 9.52277 26.3513 9.49338 26.219L9.46398 26.1015C9.31703 25.3373 9.22885 24.5584 9.22885 23.7796C9.22885 23.662 9.22885 23.5297 9.22885 23.4122C9.24355 23.0889 9.27294 22.7656 9.33172 22.4423H0.0440873C0.0440873 22.5451 0.0293908 22.648 0.0293908 22.7509C0.0293908 22.7509 0 23.4416 0 23.7942C0 25.7635 0.279218 27.7327 0.822956 29.6284C1.07278 30.5248 1.39609 31.4066 1.77817 32.2589C3.21834 35.5213 5.46677 38.3723 8.31773 40.5472C11.1687 42.7075 14.5193 44.1182 18.0609 44.6326C21.6026 45.1469 25.2177 44.7649 28.5683 43.501C31.9189 42.2372 34.8874 40.1504 37.2093 37.4318L30.082 31.5682Z" fill="#00493E"/>
<path d="M79.3711 44.4856H70.9211V13.9629H79.3711V18.2393C79.9589 17.2547 80.7378 16.4023 81.6636 15.7263C83.1919 14.5654 84.9995 14.1245 86.7189 13.8306C88.6293 13.5073 90.5838 13.5514 92.4796 13.9482L92.8323 14.0216L91.3774 23.1917L90.9365 23.0153C89.1731 22.2953 87.2479 22.0895 85.3669 22.4128C83.6328 22.6626 82.0751 23.5738 81.0023 24.9552C80.1206 26.0573 79.5621 27.5122 79.3858 29.2463V29.7606C79.3858 30.0251 79.3711 30.3043 79.3711 30.5983V44.4856Z" fill="#00493E"/>
<path d="M115.566 31.7152C115.111 33.0084 114.347 34.1547 113.318 35.0658C112.289 35.9622 111.04 36.5941 109.703 36.8733C108.366 37.1526 106.969 37.0791 105.676 36.6676C104.368 36.2561 103.193 35.5067 102.267 34.4927L112.495 30.1281L123.355 25.5284C122.459 21.7516 120.196 18.4451 116.992 16.2407C113.788 14.0364 109.879 13.1106 106.029 13.6249C102.179 14.1393 98.6517 16.0644 96.1388 19.0182C93.6258 21.9867 92.3032 25.7635 92.4355 29.6431C92.5677 33.5228 94.1255 37.2113 96.8295 40.0035C99.5335 42.7957 103.178 44.4857 107.058 44.7502C110.937 45.0147 114.773 43.8244 117.83 41.4143C120.886 39.0042 122.929 35.5507 123.576 31.7299L115.566 31.7152ZM108.072 21.2079C109.762 21.2079 111.393 21.7369 112.745 22.7362L100.209 28.056C100.474 26.1603 101.4 24.4262 102.855 23.1624C104.31 21.8985 106.161 21.2079 108.072 21.2079Z" fill="#00493E"/>
<path d="M203.534 44.4856H195.07V26.7921C195.07 24.7494 194.629 23.324 193.777 22.5598C192.909 21.7809 191.793 21.3548 190.617 21.3841C189.838 21.3988 189.089 21.6193 188.413 22.0014C187.59 22.4716 186.914 23.177 186.488 24.0147C185.944 24.9552 185.679 26.2043 185.679 27.7473V44.4856H177.229V26.7921C177.229 24.7494 176.818 23.3093 176.024 22.5598C175.627 22.1777 175.157 21.8838 174.643 21.6781C174.128 21.4723 173.585 21.3841 173.026 21.3988C172.233 21.4282 171.454 21.634 170.748 22.0161C169.896 22.4863 169.176 23.1917 168.706 24.0441C168.147 24.9846 167.853 26.2337 167.853 27.762V44.5003H159.374V13.9041H167.839V17.6956C168.632 16.5787 169.617 15.6088 170.748 14.8299C172.203 13.8747 173.923 13.3898 175.657 13.4044C177.744 13.4044 179.478 13.8894 180.815 14.8593C181.858 15.6088 182.843 16.8432 183.754 18.5038C184.533 17.2988 185.738 15.8439 187.399 14.8887C189.103 13.9041 191.043 13.3898 193.012 13.3898C194.937 13.3457 196.833 13.8453 198.479 14.8299C200.052 15.7851 201.286 17.2988 202.182 19.2974C203.079 21.296 203.505 23.7942 203.505 26.7627V44.4856H203.534Z" fill="#00493E"/>
<path d="M148.852 31.7152C148.411 33.0084 147.632 34.1547 146.604 35.0658C145.575 35.9622 144.326 36.5941 142.988 36.8733C141.651 37.1526 140.255 37.0791 138.962 36.6676C137.654 36.2561 136.478 35.5067 135.552 34.4927L142.386 31.5682L145.766 30.1281L156.626 25.5284C155.73 21.7516 153.466 18.4451 150.263 16.2407C147.059 14.0364 143.15 13.1106 139.3 13.6249C135.45 14.1393 131.923 16.0644 129.41 19.0182C126.897 21.972 125.574 25.7635 125.706 29.6431C125.839 33.5228 127.396 37.2113 130.1 40.0035C132.804 42.7957 136.449 44.4857 140.329 44.7502C144.208 45.0147 148.044 43.8244 151.1 41.4143C154.157 39.0042 156.2 35.5507 156.846 31.7299L148.852 31.7152ZM141.372 21.2079C143.062 21.2079 144.693 21.7369 146.045 22.7362L133.51 28.056C133.774 26.1603 134.7 24.4262 136.155 23.1624C137.595 21.8985 139.447 21.2079 141.372 21.2079Z" fill="#00493E"/>
<path d="M64.264 16.8286C61.7951 14.7712 58.5327 13.7278 54.609 13.7278C50.9204 13.7278 47.8049 14.6095 45.3507 16.373C43.0876 17.9895 41.5152 19.9734 40.7069 22.2806L40.5599 22.6921L48.863 24.2057L48.9952 23.9559C49.3626 23.2505 49.877 22.6333 50.5089 22.1484C51.3906 21.4577 52.6251 21.105 54.1534 21.105C56.0051 21.105 57.3424 21.5312 58.1212 22.3688C58.7825 23.0889 59.194 24.3086 59.2969 25.7929C53.3158 25.4696 48.5544 25.9839 45.145 27.3065C41.427 28.7467 39.5459 31.4801 39.5459 35.4185C39.5166 37.1085 39.9868 38.7691 40.8686 40.2092C41.7797 41.7229 43.117 42.9426 44.7041 43.7362C46.35 44.5738 48.3486 45 50.6265 45C53.1247 45 55.285 44.4416 57.0631 43.3541C58.2535 42.634 59.3116 41.7082 60.208 40.6501V44.5444H68.0702V27.718C68.0408 22.5892 66.7769 18.9153 64.264 16.8286ZM57.9596 34.478C57.2836 35.4773 56.4312 36.3296 55.4466 36.9909C54.5796 37.6081 53.5509 37.9608 52.4928 38.0196C51.0526 38.0931 49.9358 37.858 49.1863 37.3289C48.4368 36.8146 48.0841 36.021 48.0841 34.9335C48.0841 33.4346 49.1569 32.4353 51.42 31.8768C53.0071 31.5095 54.6384 31.3184 56.2696 31.3331C57.2689 31.3331 58.2682 31.3919 59.2528 31.4948C59.0177 32.5675 58.5915 33.5815 57.9596 34.478Z" fill="#00493E"/>
<path d="M10.9336 16.6228C14.1666 16.6228 16.7824 14.0069 16.7824 10.7886C16.7824 7.57028 14.1666 4.95447 10.9336 4.95447C7.70054 4.95447 5.08472 7.57028 5.08472 10.7886C5.09941 14.0069 7.71524 16.6228 10.9336 16.6228Z" fill="#00493E"/>
<path d="M38.2527 11.3765C38.2527 11.3765 34.0204 4.49895 25.0707 3L22.6607 11.9937C22.6607 11.9937 27.6866 12.1994 31.1547 17.2547L38.2527 11.3765Z" fill="#00493E"/>
</svg>
